<?xml version="1.0" encoding="utf-8"?>
<!-- Generator: Adobe Illustrator 19.0.1, SVG Export Plug-In . SVG Version: 6.00 Build 0)  -->
<svg version="1.1" id="Layer_1" xmlns="http://www.w3.org/2000/svg" xmlns:xlink="http://www.w3.org/1999/xlink" x="0px" y="0px"
	 viewBox="0 0 1058 260" style="enable-background:new 0 0 1058 260;" xml:space="preserve">
<style type="text/css">
	.st0{fill:#FFFFFF;}
</style>
<g id="YZylXx.tif">
	<g>
		<path class="st0" d="M352.5,130.2c-0.5-16.1-1.8-36-8.1-55.3c-5.5-16.7-13.9-31.2-28.8-41.2c-16.9-11.4-35.9-12.7-55.3-10.3
			c-7.1,0.9-14.2,3.5-20.6,6.6c-23,11.4-34.8,31.6-41.5,55.2c-8,27.6-8.4,55.8-3.2,83.9c3.9,21.4,12.1,40.9,29.3,55.3
			C254,249.5,311.3,252,338,201.2C349.1,180.2,352.5,157.5,352.5,130.2z"/>
		<path class="st0" d="M13,26.5c2.4-0.3,4.9-1,7.3-0.8c21.1,1.9,42.1,1.3,63-2c0.6-0.1,1.3,0.1,1.7,0.1
			c8.2,45.9,28.9,86.9,47.2,129.8c0.5-1.3,0.9-1.7,0.8-2.1c-0.8-25.4-1.2-50.8-2.7-76.2c-0.8-13-3.1-26.1-8.9-38.2
			c-1.7-3.5-4.4-6.5-6.5-9.7c-0.9-1.4-1.6-3-2.3-4.5c1.5-0.2,3.1-0.7,4.5-0.5c20.3,2.4,40.5,2.7,60.8-0.6c1.7-0.3,3.6,0.6,5.5,1
			c-0.9,1.4-1.6,2.9-2.7,4c-7.4,7.6-9.9,17.4-11.2,27.3c-5.2,39.7-4.5,79.5-2.7,119.3c0.9,20.1,2.8,40.1,4.3,60.2
			c-16.7,1.5-34.1,3.1-51.5,4.6c-13.4-46.4-34.8-90-54.8-134.2c0,17.6-0.3,35.1,0.1,52.7c0.4,19.6,1.8,39.2,7.1,58.3
			c1.9,7,4.4,13.6,10.1,18.6c0.5,0.4,0.9,1,1.1,1.6c0.1,0.4-0.2,0.9-0.5,1.9c-22.7-3.3-45.6-2.6-68.5-0.1c0-1.4-0.1-1.9,0-2
			c8.5-7.1,11.2-16.9,12.9-27.3c4.2-26.2,4.2-52.7,3.9-79.1c-0.3-22.9-1.7-45.8-3.3-68.6c-0.7-9.8-3.4-19.5-9.8-27.5
			c-1.3-1.6-3.2-2.8-4.9-4.1C13,27.8,13,27.2,13,26.5z"/>
		<path class="st0" d="M443,20.5c7.4,1.7,14.8,3.2,22.1,5.2c9.6,2.6,19,4.8,29.7,0.2c-1.7,6.5-3.1,11.8-4.4,17.1
			c-3.9,15-5.6,30.3-5.5,45.9c0,0.7,0.2,1.4,0,2c-0.5,1.3-1.2,2.5-1.8,3.7c-0.9-0.9-2.1-1.7-2.7-2.8c-4-6.8-7.2-14.2-11.9-20.5
			c-13.1-17.3-33.2-14.8-42.7,4.7c-5.8,12-8.2,24.7-9.2,37.7c-1.5,20.1-1.4,40.3,4.5,59.9c3.6,12,9.5,22.6,22,27.3
			c15.1,5.7,37.3,3.5,44.9-20.4c0.3-1,0.9-2,1.4-3c0.5-0.1,1.1-0.1,1.6-0.2c0.9,4.5,2.5,9,2.7,13.6c1.4,27.7-15.2,47.1-42,49.7
			c-25.2,2.5-46.8-4.2-63.1-24.5c-10.4-13-15.8-28.4-18.6-44.6c-5.5-31.3-4.5-62.5,3.7-93.1c5-18.6,13.9-35.4,30.3-47
			c7.7-5.4,16.4-8.6,25.7-9.7c1.8-0.2,3.5-0.8,5.2-1.1C437.7,20.5,440.3,20.5,443,20.5z"/>
	</g>
</g>
<g id="YZylXx.tif_1_">
	<g>
		<path class="st0" d="M896.9,130.2c-0.5-16.1-1.8-36-8.1-55.3c-5.5-16.7-13.9-31.2-28.8-41.2c-16.9-11.4-35.9-12.7-55.3-10.3
			c-7.1,0.9-14.2,3.5-20.6,6.6c-23,11.4-34.8,31.6-41.5,55.2c-8,27.6-8.4,55.8-3.2,83.9c3.9,21.4,12.1,40.9,29.3,55.3
			c29.9,25.2,87.1,27.7,113.8-23.2C893.5,180.2,897,157.5,896.9,130.2z"/>
		<path class="st0" d="M557.5,26.5c2.4-0.3,4.9-1,7.3-0.8c21.1,1.9,42.1,1.3,63-2c0.6-0.1,1.3,0.1,1.7,0.1
			c8.2,45.9,28.9,86.9,47.2,129.8c0.5-1.3,0.9-1.7,0.8-2.1c-0.8-25.4-1.2-50.8-2.7-76.2c-0.8-13-3.1-26.1-8.9-38.2
			c-1.7-3.5-4.4-6.5-6.5-9.7c-0.9-1.4-1.6-3-2.3-4.5c1.5-0.2,3.1-0.7,4.5-0.5c20.3,2.4,40.5,2.7,60.8-0.6c1.7-0.3,3.6,0.6,5.5,1
			c-0.9,1.4-1.6,2.9-2.7,4c-7.4,7.6-9.9,17.4-11.2,27.3c-5.2,39.7-4.5,79.5-2.7,119.3c0.9,20.1,2.8,40.1,4.3,60.2
			c-16.7,1.5-34.1,3.1-51.5,4.6c-13.4-46.4-34.8-90-54.8-134.2c0,17.6-0.3,35.1,0.1,52.7c0.4,19.6,1.8,39.2,7.1,58.3
			c1.9,7,4.4,13.6,10.1,18.6c0.5,0.4,0.9,1,1.1,1.6c0.1,0.4-0.2,0.9-0.5,1.9c-22.7-3.3-45.6-2.6-68.5-0.1c0-1.4-0.1-1.9,0-2
			c8.5-7.1,11.2-16.9,12.9-27.3c4.2-26.2,4.2-52.7,3.9-79.1c-0.3-22.9-1.7-45.8-3.3-68.6c-0.7-9.8-3.4-19.5-9.8-27.5
			c-1.3-1.6-3.2-2.8-4.9-4.1C557.5,27.8,557.5,27.2,557.5,26.5z"/>
		<path class="st0" d="M987.5,20.5c7.4,1.7,14.8,3.2,22.1,5.2c9.6,2.6,19,4.8,29.7,0.2c-1.7,6.5-3.1,11.8-4.4,17.1
			c-3.9,15-5.6,30.3-5.5,45.9c0,0.7,0.2,1.4,0,2c-0.5,1.3-1.2,2.5-1.8,3.7c-0.9-0.9-2.1-1.7-2.7-2.8c-4-6.8-7.2-14.2-11.9-20.5
			c-13.1-17.3-33.2-14.8-42.7,4.7c-5.8,12-8.2,24.7-9.2,37.7c-1.5,20.1-1.4,40.3,4.5,59.9c3.6,12,9.5,22.6,22,27.3
			c15.1,5.7,37.3,3.5,44.9-20.4c0.3-1,0.9-2,1.4-3c0.5-0.1,1.1-0.1,1.6-0.2c0.9,4.5,2.5,9,2.7,13.6c1.4,27.7-15.2,47.1-42,49.7
			c-25.2,2.5-46.8-4.2-63.1-24.5c-10.4-13-15.8-28.4-18.6-44.6c-5.5-31.3-4.5-62.5,3.7-93.1c5-18.6,13.9-35.4,30.3-47
			c7.7-5.4,16.4-8.6,25.7-9.7c1.8-0.2,3.5-0.8,5.2-1.1C982.1,20.5,984.8,20.5,987.5,20.5z"/>
	</g>
</g>
</svg>
